<?xml version="1.0" encoding="UTF-8"?>
<!-- Uploaded to: SVG Repo, www.svgrepo.com, Generator: SVG Repo Mixer Tools -->
<svg id="_x36_" width="512" height="324.62" version="1.1" viewBox="0 0 512 324.62" xml:space="preserve" xmlns="http://www.w3.org/2000/svg">

	
		<path d="m510.77 9.286s0-0.077-0.077-0.154c-1.535-3.53-4.297-6.293-7.828-7.827-0.077-0.077-0.154-0.077-0.154-0.077-1.84-0.768-3.835-1.228-5.907-1.228h-481.61c-8.365 0-15.194 6.83-15.194 15.195v294.14c0 2.533 0.614 4.911 1.688 6.983 1.458 2.839 3.76 5.141 6.599 6.599 2.072 1.075 4.451 1.689 6.907 1.689h481.61c8.364 0 15.194-6.83 15.194-15.271v-294.14c0-2.072-0.46-4.068-1.228-5.909zm-473.32 221.77c-1.919 0-3.607-0.537-5.065-1.458-2.532-1.612-4.297-4.374-4.451-7.521v-128.84c0-5.218 4.297-9.439 9.516-9.439h437.1c5.218 0 9.516 4.221 9.516 9.439v128.31c0 5.219-4.297 9.516-9.516 9.516h-437.1z" fill="#868686"/>
		<path d="m479.44 63.458h-446.89c-2.546 0-4.629-2.083-4.629-4.629v-25.668c0-2.546 2.083-4.629 4.629-4.629h446.89c2.546 0 4.629 2.083 4.629 4.629v25.669c0 2.545-2.083 4.628-4.629 4.628z" fill="#fff"/>
		<path d="m118.49 28.528v34.934h-85.934c-2.553 0-4.635-2.083-4.635-4.635v-25.664c0-2.552 2.082-4.635 4.635-4.635z" fill="#d4aa00"/>
		<rect x="228.8" y="135.27" width="73.282" height="49.522" fill="#e0e0e0"/>
		<path d="m259.08 159.48c0 28.267-11.987 53.727-31.149 71.581h-133.36c-19.162-17.854-31.149-43.315-31.149-71.581 0-30.527 13.981-57.778 35.873-75.721h123.91c21.892 17.943 35.873 45.194 35.873 75.721z" fill="#504f4f"/>
		<circle cx="350.75" cy="159.48" r="62.426" fill="#504f4f"/>
		<g fill="#fff">
			
				<path d="m171.7 196.75 1.991-0.638c0.316-0.102 0.667-0.214 1.049-0.337 0.376-0.137 0.768-0.325 1.195-0.504 0.84-0.388 1.831-0.738 2.832-1.283 4.087-2.011 9.058-5.726 12.817-10.521 1.012-1.14 1.764-2.472 2.615-3.701 0.793-1.267 1.43-2.601 2.104-3.854 0.529-1.322 1.107-2.577 1.53-3.812 0.367-1.253 0.757-2.428 1.036-3.532 0.218-1.119 0.417-2.145 0.594-3.054 0.188-0.908 0.188-1.722 0.271-2.381 0.12-1.324 0.188-2.081 0.188-2.081l6.383 0.259s-0.077 0.88-0.212 2.42c-0.093 0.768-0.108 1.711-0.32 2.77-0.206 1.059-0.439 2.255-0.694 3.558-0.323 1.288-0.769 2.66-1.207 4.119-0.494 1.439-1.158 2.908-1.787 4.444-0.774 1.467-1.528 3.017-2.45 4.494-0.98 1.44-1.877 2.978-3.044 4.313-4.376 5.587-10.167 9.903-14.928 12.25-1.168 0.63-2.318 1.051-3.3 1.497-0.498 0.208-0.957 0.422-1.395 0.582-0.445 0.145-0.853 0.278-1.221 0.398-1.478 0.472-2.322 0.741-2.322 0.741z"/>
				<path d="m188.6 173.16s0.096-0.178 0.266-0.488c0.167-0.312 0.329-0.793 0.567-1.35 0.211-0.567 0.547-1.197 0.758-1.925 0.218-0.725 0.451-1.499 0.684-2.273 0.208-0.781 0.312-1.587 0.475-2.327 0.067-0.373 0.163-0.728 0.202-1.075 0.03-0.348 0.057-0.676 0.082-0.98 0.116-1.212 0.193-2.02 0.193-2.02l11.292 0.457s-0.099 1.103-0.247 2.757c-0.039 0.413-0.081 0.861-0.126 1.335-0.057 0.472-0.174 0.962-0.265 1.473-0.21 1.017-0.377 2.117-0.66 3.188-0.319 1.063-0.638 2.125-0.938 3.12-0.302 0.995-0.735 1.87-1.033 2.646-0.326 0.765-0.567 1.417-0.79 1.848-0.227 0.429-0.356 0.674-0.356 0.674z"/>
			
			
				<path d="m129.06 180.93s0.43 0.626 1.183 1.722c0.385 0.541 0.933 1.138 1.518 1.855 0.298 0.355 0.614 0.733 0.948 1.131 0.354 0.379 0.754 0.753 1.156 1.156 3.176 3.256 8.216 6.873 13.938 8.984 5.703 2.192 11.901 2.629 16.428 2.282 1.133-0.127 2.171-0.242 3.092-0.345 0.912-0.158 1.698-0.352 2.349-0.484 0.65-0.14 1.161-0.25 1.509-0.325 0.34-0.104 0.522-0.16 0.522-0.16l1.725 6.151s-0.212 0.064-0.61 0.184c-0.406 0.089-1.001 0.219-1.759 0.385-0.759 0.156-1.677 0.377-2.74 0.559-1.073 0.12-2.283 0.257-3.603 0.405-5.267 0.41-12.471-0.108-19.13-2.66-6.678-2.456-12.548-6.675-16.245-10.464-0.468-0.469-0.93-0.908-1.341-1.35-0.39-0.462-0.76-0.9-1.108-1.312-0.685-0.833-1.313-1.534-1.764-2.163-0.879-1.275-1.382-2.003-1.382-2.003z"/>
				<path d="m156.67 189.74s3.225 0.438 6.476 0.295c1.605-0.209 3.226-0.303 4.398-0.637 0.593-0.124 1.087-0.228 1.433-0.3 0.347-0.07 0.533-0.154 0.533-0.154l3.052 10.882s-0.259 0.105-0.733 0.208-1.152 0.249-1.965 0.425c-1.614 0.429-3.828 0.614-6.031 0.858-4.434 0.228-8.835-0.399-8.835-0.399z"/>
			
			
				<path d="m130.9 135.5s-0.12 0.147-0.344 0.424c-0.226 0.275-0.565 0.674-0.917 1.24-0.368 0.554-0.815 1.227-1.327 1.998-0.535 0.758-0.956 1.723-1.513 2.716-2.109 4.03-4 9.941-4.237 16.036-0.257 6.094 1.149 12.139 2.925 16.327 0.475 1.035 0.817 2.031 1.289 2.829 0.448 0.81 0.839 1.517 1.161 2.099 0.305 0.592 0.61 1.017 0.814 1.31 0.201 0.294 0.309 0.451 0.309 0.451l-5.313 3.546s-0.125-0.183-0.358-0.525c-0.235-0.342-0.587-0.839-0.948-1.526-0.375-0.678-0.83-1.501-1.352-2.446-0.541-0.935-0.957-2.087-1.504-3.297-0.572-1.203-0.979-2.587-1.445-4.038-0.518-1.437-0.801-3.022-1.155-4.646-0.085-0.407-0.17-0.817-0.256-1.23-0.049-0.419-0.099-0.84-0.149-1.265-0.094-0.849-0.188-1.709-0.284-2.575-0.148-1.734-0.087-3.506-0.116-5.272 0.172-1.758 0.253-3.529 0.542-5.245 0.165-0.856 0.329-1.705 0.492-2.544 0.084-0.419 0.167-0.835 0.25-1.248 0.119-0.405 0.238-0.807 0.355-1.205 0.484-1.59 0.895-3.147 1.527-4.538 0.583-1.408 1.1-2.755 1.767-3.908 0.643-1.162 1.152-2.277 1.766-3.165 0.597-0.899 1.118-1.683 1.546-2.328 0.415-0.655 0.806-1.122 1.068-1.444 0.261-0.323 0.4-0.495 0.4-0.495z"/>
				<path d="m131.05 164.5s0.172 0.789 0.43 1.974c0.063 0.296 0.13 0.618 0.202 0.957 0.109 0.33 0.223 0.678 0.341 1.038 0.26 0.711 0.417 1.513 0.769 2.243 0.32 0.743 0.64 1.486 0.94 2.182 0.367 0.664 0.71 1.283 1.004 1.815 0.285 0.536 0.529 0.979 0.75 1.259 0.202 0.291 0.317 0.457 0.317 0.457l-9.399 6.275s-0.157-0.229-0.43-0.629c-0.291-0.389-0.635-0.99-1.032-1.721-0.399-0.729-0.865-1.58-1.363-2.491-0.414-0.954-0.855-1.971-1.296-2.989-0.463-1.009-0.719-2.097-1.062-3.078-0.157-0.496-0.309-0.974-0.453-1.429-0.104-0.465-0.201-0.905-0.291-1.311-0.347-1.627-0.578-2.712-0.578-2.712z"/>
			
			
				<path d="m174.68 123.19s-0.176-0.07-0.507-0.201c-0.341-0.103-0.842-0.254-1.478-0.446-0.639-0.184-1.406-0.441-2.302-0.673-0.909-0.177-1.935-0.376-3.054-0.594-4.484-0.712-10.698-0.778-16.558 0.945-5.875 1.64-11.191 4.838-14.62 7.826-0.434 0.369-0.863 0.709-1.246 1.059-0.365 0.37-0.711 0.72-1.036 1.05-0.642 0.667-1.236 1.218-1.663 1.726-0.839 1.031-1.319 1.621-1.319 1.621l-5.008-3.964s0.56-0.686 1.539-1.885c0.5-0.59 1.184-1.238 1.933-2.013 0.38-0.383 0.784-0.789 1.211-1.218 0.445-0.408 0.941-0.807 1.446-1.237 3.992-3.478 10.183-7.208 17.038-9.116 6.843-2.005 14.066-1.938 19.283-1.104 1.304 0.255 2.499 0.488 3.558 0.695 1.045 0.267 1.942 0.562 2.686 0.779 0.742 0.227 1.325 0.405 1.722 0.526 0.386 0.151 0.593 0.232 0.593 0.232z"/>
				<path d="m147.16 132.34s-0.709 0.39-1.772 0.977c-0.527 0.301-1.087 0.742-1.721 1.159-0.314 0.214-0.637 0.436-0.967 0.661-0.304 0.258-0.613 0.521-0.922 0.783-1.296 0.983-2.369 2.207-3.242 3.053-0.77 0.939-1.284 1.565-1.284 1.565l-8.862-7.014s0.683-0.874 1.765-2.133c1.171-1.178 2.667-2.821 4.422-4.182 0.425-0.355 0.851-0.709 1.27-1.058 0.447-0.312 0.887-0.619 1.314-0.916 0.863-0.578 1.642-1.16 2.359-1.577 1.454-0.806 2.424-1.343 2.424-1.343z"/>
			
			
				<path d="m199.92 161.05s-7e-3 -0.76-0.019-2.089c-0.03-0.664 0.037-1.475-0.077-2.395-0.102-0.92-0.218-1.959-0.345-3.092-0.189-1.123-0.482-2.325-0.747-3.604-0.322-1.264-0.797-2.562-1.217-3.923-0.571-1.303-1.098-2.685-1.786-4.012-0.748-1.294-1.391-2.682-2.307-3.9-3.359-5.084-8.014-9.189-11.924-11.524-0.953-0.624-1.913-1.053-2.719-1.507-0.411-0.213-0.787-0.432-1.15-0.599-0.37-0.153-0.71-0.294-1.018-0.421-1.23-0.507-1.933-0.797-1.933-0.797l2.217-5.991s0.82 0.337 2.255 0.926c0.358 0.15 0.754 0.315 1.185 0.496 0.424 0.195 0.864 0.445 1.344 0.693 0.943 0.524 2.055 1.037 3.169 1.759 4.556 2.724 9.978 7.494 13.888 13.417 1.055 1.425 1.824 3.031 2.684 4.545 0.8 1.547 1.425 3.153 2.079 4.678 0.502 1.582 1.045 3.1 1.421 4.574 0.318 1.489 0.652 2.893 0.87 4.203 0.148 1.32 0.283 2.53 0.403 3.603 0.125 1.073 0.064 2.014 0.095 2.787 9e-3 1.546 0.015 2.43 0.015 2.43z"/>
				<path d="m182.69 137.71s-2.262-2.359-5.05-4.033c-0.652-0.486-1.386-0.831-2.053-1.189-0.674-0.345-1.274-0.731-1.852-0.924-1.12-0.464-1.867-0.772-1.867-0.772l3.923-10.599s1.025 0.423 2.563 1.057c0.784 0.285 1.62 0.785 2.543 1.262 0.917 0.491 1.911 0.987 2.814 1.633 0.915 0.625 1.869 1.197 2.687 1.837 0.806 0.655 1.559 1.266 2.204 1.79 0.662 0.505 1.127 1.023 1.48 1.355 0.345 0.34 0.543 0.534 0.543 0.534z"/>
			
		</g>
		<g fill="#fff">
			
				<path d="m318.02 180.14s0.428 0.627 1.179 1.726c0.188 0.274 0.395 0.578 0.622 0.909 0.239 0.321 0.53 0.644 0.824 1.002 0.611 0.695 1.229 1.545 2.037 2.349 3.093 3.344 8.07 7.05 13.739 9.286 1.381 0.645 2.872 0.986 4.293 1.451 1.441 0.398 2.901 0.629 4.294 0.918 1.418 0.13 2.786 0.326 4.09 0.38 1.306-6e-3 2.543 0.034 3.68-0.014 1.134-0.111 2.174-0.212 3.096-0.301 0.924-0.079 1.704-0.311 2.359-0.419 1.303-0.263 2.048-0.412 2.048-0.412l1.572 6.191s-0.866 0.177-2.381 0.487c-0.762 0.129-1.671 0.384-2.746 0.483-1.074 0.104-2.286 0.221-3.609 0.35-1.326 0.057-2.769 0.021-4.292 0.018-1.52-0.063-3.117-0.281-4.769-0.445-1.626-0.324-3.327-0.604-5.006-1.067-1.659-0.529-3.389-0.95-5.002-1.688-6.603-2.602-12.391-6.921-15.997-10.816-0.937-0.941-1.669-1.923-2.377-2.737-0.341-0.418-0.677-0.797-0.955-1.171-0.266-0.384-0.51-0.738-0.73-1.057-0.873-1.282-1.372-2.015-1.372-2.015z"/>
				<path d="m345.44 189.6s0.198 0.042 0.544 0.115c0.347 0.071 0.854 0.089 1.456 0.159 0.604 0.04 1.303 0.183 2.061 0.178 0.758 3e-3 1.566 5e-3 2.373 8e-3 0.808-0.023 1.611-0.153 2.366-0.208 0.377-0.042 0.745-0.051 1.088-0.113 0.341-0.071 0.664-0.138 0.962-0.201 1.195-0.234 1.992-0.391 1.992-0.391l2.781 10.954s-1.085 0.22-2.713 0.55c-0.408 0.08-0.848 0.168-1.315 0.26-0.469 0.08-0.972 0.108-1.488 0.166-1.035 0.088-2.136 0.242-3.243 0.276-1.109-3e-3 -2.218-6e-3 -3.258-9e-3 -1.04-6e-3 -2.002-0.171-2.831-0.236-0.826-0.094-1.52-0.139-1.996-0.231-0.476-0.095-0.748-0.149-0.748-0.149z"/>
			
			
				<path d="m321.02 134.75s-0.478 0.591-1.314 1.625c-0.409 0.524-0.825 1.219-1.345 1.984-0.255 0.386-0.527 0.798-0.813 1.231-0.263 0.447-0.507 0.937-0.779 1.438-2.215 3.973-4.246 9.834-4.637 15.921-0.475 6.09 0.874 12.157 2.497 16.396 0.444 1.05 0.851 2.012 1.212 2.865 0.411 0.829 0.822 1.526 1.134 2.113 0.319 0.583 0.57 1.042 0.742 1.354 0.197 0.296 0.302 0.455 0.302 0.455l-5.403 3.407s-0.122-0.185-0.35-0.532c-0.201-0.364-0.496-0.897-0.871-1.576-0.366-0.683-0.839-1.5-1.316-2.467-0.421-0.993-0.896-2.115-1.415-3.338-1.895-4.932-3.452-11.985-2.904-19.095 0.45-7.102 2.821-13.93 5.399-18.554 0.316-0.583 0.605-1.151 0.911-1.671 0.331-0.506 0.646-0.985 0.942-1.436 0.603-0.893 1.096-1.696 1.57-2.307 0.971-1.206 1.526-1.895 1.526-1.895z"/>
				<path d="m320.45 163.73s0.5 3.216 1.563 6.291c0.658 1.479 1.211 3.006 1.865 4.033 0.288 0.533 0.528 0.977 0.697 1.289 0.166 0.312 0.3 0.467 0.3 0.467l-9.56 6.028s-0.175-0.218-0.409-0.643-0.567-1.033-0.968-1.762c-0.872-1.425-1.68-3.494-2.541-5.536-1.483-4.185-2.137-8.582-2.137-8.582z"/>
			
			
				<path d="m365.08 123.56s-0.175-0.073-0.505-0.209c-0.328-0.138-0.807-0.35-1.449-0.526-0.636-0.195-1.408-0.431-2.293-0.702-0.879-0.297-1.924-0.425-3.035-0.676-4.464-0.873-10.669-1-16.579 0.511-5.914 1.491-11.308 4.562-14.815 7.458-0.857 0.751-1.713 1.362-2.345 2.042-0.649 0.661-1.215 1.237-1.68 1.712-0.482 0.461-0.801 0.875-1.024 1.153-0.224 0.277-0.344 0.424-0.344 0.424l-4.914-4.081s0.14-0.172 0.402-0.493c0.261-0.323 0.637-0.801 1.192-1.343 0.543-0.553 1.202-1.224 1.958-1.994 0.742-0.785 1.728-1.512 2.732-2.382 0.991-0.89 2.201-1.675 3.458-2.536 1.229-0.906 2.668-1.63 4.124-2.432 0.366-0.197 0.734-0.396 1.106-0.596 0.387-0.166 0.777-0.334 1.17-0.503 0.788-0.332 1.584-0.668 2.387-1.007 1.62-0.637 3.336-1.083 5.02-1.613 1.734-0.337 3.454-0.763 5.182-0.976 0.868-0.085 1.729-0.17 2.579-0.254 0.426-0.039 0.849-0.077 1.268-0.116 0.422-1e-3 0.841-2e-3 1.256-3e-3 1.662 0.011 3.271-0.04 4.785 0.17 1.515 0.157 2.954 0.269 4.249 0.58 1.297 0.286 2.51 0.454 3.537 0.791 1.032 0.316 1.931 0.591 2.672 0.818 0.747 0.211 1.306 0.452 1.689 0.612 0.383 0.157 0.588 0.242 0.588 0.242z"/>
				<path d="m337.33 131.98s-0.707 0.39-1.769 0.975c-0.267 0.144-0.555 0.301-0.86 0.467-0.285 0.198-0.586 0.407-0.897 0.623-0.607 0.451-1.331 0.831-1.931 1.377-0.62 0.518-1.241 1.036-1.823 1.522-0.532 0.541-1.028 1.046-1.453 1.48-0.433 0.426-0.788 0.786-0.993 1.078-0.221 0.277-0.348 0.435-0.348 0.435l-8.694-7.221s0.175-0.215 0.48-0.591c0.29-0.39 0.768-0.891 1.356-1.48 0.585-0.59 1.268-1.279 1.999-2.017 0.796-0.668 1.646-1.381 2.495-2.094 0.835-0.732 1.805-1.287 2.647-1.896 0.43-0.292 0.846-0.574 1.24-0.842 0.417-0.231 0.81-0.45 1.174-0.652 1.461-0.796 2.435-1.327 2.435-1.327z"/>
			
			
				<path d="m389.37 162.02s0.017-0.189 0.048-0.544c1e-3 -0.356 3e-3 -0.879 6e-3 -1.544-6e-3 -0.665 0.022-1.474-0.011-2.398-0.09-0.922-0.191-1.962-0.301-3.096-0.596-4.501-2.304-10.475-5.627-15.602-3.247-5.163-7.828-9.347-11.67-11.782-0.478-0.31-0.926-0.625-1.37-0.892-0.458-0.244-0.893-0.476-1.302-0.694-0.822-0.425-1.52-0.837-2.129-1.103-1.228-0.51-1.93-0.802-1.93-0.802l2.372-5.931s0.816 0.341 2.245 0.938c0.708 0.311 1.524 0.782 2.48 1.279 0.475 0.255 0.98 0.527 1.513 0.813 0.518 0.311 1.042 0.672 1.598 1.034 4.471 2.835 9.812 7.706 13.595 13.732 3.872 5.988 5.868 12.93 6.556 18.168 0.128 1.322 0.244 2.534 0.348 3.608 0.042 1.078 0.015 2.021 0.02 2.797-6e-3 0.775-0.011 1.385-0.014 1.8-0.035 0.414-0.054 0.634-0.054 0.634z"/>
				<path d="m372.76 138.25s-0.577-0.568-1.441-1.42c-0.439-0.419-1.021-0.83-1.601-1.319-0.295-0.239-0.6-0.486-0.91-0.738-0.334-0.218-0.674-0.44-1.013-0.661-1.312-0.962-2.791-1.641-3.85-2.237-1.12-0.471-1.867-0.784-1.867-0.784l4.197-10.493s1.032 0.406 2.549 1.083c1.462 0.787 3.464 1.752 5.269 3.047 0.461 0.307 0.922 0.613 1.376 0.915 0.427 0.34 0.846 0.674 1.252 0.998 0.8 0.662 1.58 1.243 2.184 1.812 1.187 1.164 1.979 1.94 1.979 1.94z"/>
			
			
				<path d="m360.28 197.01s0.726-0.224 1.997-0.615c0.628-0.218 1.424-0.385 2.273-0.757 0.853-0.361 1.816-0.768 2.866-1.212 1.022-0.501 2.091-1.125 3.241-1.743 1.121-0.669 2.229-1.494 3.413-2.285 1.086-0.919 2.26-1.818 3.336-2.855 1.027-1.086 2.175-2.097 3.081-3.323 3.915-4.669 6.523-10.301 7.646-14.715 0.326-1.092 0.464-2.134 0.669-3.036 0.087-0.455 0.189-0.877 0.246-1.273 0.041-0.399 0.079-0.765 0.114-1.095 0.135-1.324 0.213-2.079 0.213-2.079l6.374 0.417s-0.089 0.882-0.245 2.426c-0.042 0.385-0.088 0.812-0.138 1.277-0.066 0.462-0.18 0.955-0.281 1.486-0.233 1.053-0.408 2.265-0.783 3.539-1.312 5.143-4.339 11.701-8.901 17.137-1.065 1.418-2.386 2.612-3.591 3.869-1.255 1.207-2.616 2.265-3.891 3.326-1.374 0.933-2.673 1.886-3.98 2.666-1.336 0.729-2.588 1.45-3.781 2.032-1.223 0.518-2.344 0.993-3.338 1.414-0.992 0.426-1.912 0.635-2.644 0.885-1.479 0.45-2.325 0.707-2.325 0.707z"/>
				<path d="m377.73 173.84s1.616-2.841 2.425-5.99c0.281-0.763 0.402-1.565 0.555-2.307 0.138-0.745 0.337-1.429 0.357-2.038 0.125-1.206 0.208-2.009 0.208-2.009l11.277 0.738s-0.113 1.103-0.282 2.759c-0.05 0.833-0.29 1.776-0.485 2.798-0.209 1.018-0.401 2.112-0.763 3.163-0.339 1.055-0.615 2.132-0.995 3.098-0.398 0.96-0.769 1.855-1.087 2.623-0.296 0.778-0.659 1.371-0.877 1.804-0.228 0.428-0.358 0.672-0.358 0.672z"/>
			
		</g>
		
			<path d="m93.509 125.6-61.144 103.99c-2.527-1.587-4.254-4.343-4.419-7.505l58.997-100.34z" fill="#504f4f"/>
		
		
			<polygon points="465.86 231.07 457.02 231.07 399 132.39 405.57 128.53" fill="#504f4f"/>
		
		<path d="m393.57 324.62h-261.99c-3.042 0-5.531-2.489-5.531-5.531l27.394-48.632c0-3.042 2.489-5.531 5.531-5.531h207.2c3.042 0 5.531 2.489 5.531 5.531l27.394 48.632c1e-3 3.042-2.489 5.531-5.531 5.531z" fill="#5d5e5e"/>
		<circle cx="38.841" cy="293.7" r="10.915" fill="#989199"/>
		<circle cx="174.77" cy="293.7" r="5.457" fill="#d6d4d6"/>
		<circle cx="350.81" cy="293.7" r="5.457" fill="#d6d4d6"/>
		<circle cx="490.64" cy="293.7" r="10.915" fill="#989199"/>
	<g stroke-width=".64241">
	
<path transform="translate(0 -93.69)" d="m30.709 156.3c-2.305-1.1137-2.7641-3.8668-2.7641-16.576 0-13.06 0.49087-15.79 3.0115-16.748 0.90841-0.34538 19.538-0.59654 44.247-0.59654h42.678v34.69l-42.881-0.0435c-28.844-0.0292-43.343-0.26671-44.292-0.72545z" fill="#d4aa00"/><path transform="translate(0 -93.69)" d="m30.709 156.3c-2.305-1.1137-2.7641-3.8668-2.7641-16.576 0-13.06 0.49087-15.79 3.0115-16.748 0.90841-0.34538 19.538-0.59654 44.247-0.59654h42.678v34.69l-42.881-0.0435c-28.844-0.0292-43.343-0.26671-44.292-0.72545z" fill="#d4aa00"/><path transform="translate(0 -93.69)" d="m30.709 156.3c-2.305-1.1137-2.7641-3.8668-2.7641-16.576 0-13.06 0.49087-15.79 3.0115-16.748 0.90841-0.34538 19.538-0.59654 44.247-0.59654h42.678v34.69l-42.881-0.0435c-28.844-0.0292-43.343-0.26671-44.292-0.72545z" fill="#ffc107" stroke="#ffc107"/></g>
</svg>
